<?xml version="1.0" encoding="iso-8859-1"?>
<!-- Generator: Adobe Illustrator 19.0.0, SVG Export Plug-In . SVG Version: 6.00 Build 0)  -->
<svg version="1.1" id="Capa_1" xmlns="http://www.w3.org/2000/svg" xmlns:xlink="http://www.w3.org/1999/xlink" x="0px" y="0px"
	 viewBox="0 0 512 512" style="enable-background:new 0 0 512 512;" xml:space="preserve">
<g>
	<g>
		<path d="M160,149.333c-17.643,0-32,14.357-32,32c0,17.643,14.357,32,32,32s32-14.357,32-32
			C192,163.691,177.643,149.333,160,149.333z M160,192c-5.867,0-10.667-4.779-10.667-10.667s4.8-10.667,10.667-10.667
			c5.867,0,10.667,4.779,10.667,10.667S165.867,192,160,192z"/>
	</g>
</g>
<g>
	<g>
		<path d="M352,149.333c-17.643,0-32,14.357-32,32c0,17.643,14.357,32,32,32c17.643,0,32-14.357,32-32
			C384,163.691,369.643,149.333,352,149.333z M352,192c-5.867,0-10.667-4.779-10.667-10.667s4.8-10.667,10.667-10.667
			c5.867,0,10.667,4.779,10.667,10.667S357.867,192,352,192z"/>
	</g>
</g>
<g>
	<g>
		<path d="M309.333,341.333h-42.667c-5.888,0-10.667,4.779-10.667,10.667c0,5.888,4.779,10.667,10.667,10.667h42.667
			c5.888,0,10.667-4.779,10.667-10.667C320,346.112,315.221,341.333,309.333,341.333z"/>
	</g>
</g>
<g>
	<g>
		<path d="M256,0C114.837,0,0,114.837,0,256c0,85.376,42.347,164.821,113.323,212.544c4.864,3.285,11.52,2.005,14.805-2.901
			c3.285-4.885,1.984-11.52-2.901-14.805C60.16,407.104,21.333,334.251,21.333,256c0-129.387,105.28-234.667,234.667-234.667
			S490.667,126.613,490.667,256S385.387,490.667,256,490.667c-11.285,0-23.424-1.045-37.077-3.221
			c-5.696-0.939-11.285,3.029-12.203,8.853c-0.917,5.824,3.051,11.285,8.875,12.203C230.357,510.869,243.563,512,256,512
			c141.163,0,256-114.837,256-256S397.163,0,256,0z"/>
	</g>
</g>
<g>
	<g>
		<path d="M224,341.333h-21.333c-5.888,0-10.667,4.779-10.667,10.667c0,5.888,4.779,10.667,10.667,10.667H224
			c5.888,0,10.667-4.779,10.667-10.667C234.667,346.112,229.888,341.333,224,341.333z"/>
	</g>
</g>
<g>
	<g>
		<path d="M245.333,298.667c-17.643,0-32,14.357-32,32v53.739C203.584,384.064,192.171,384,192,384
			c-47.061,0-85.333,28.715-85.333,64c0,35.285,38.272,64,85.333,64s85.333-28.715,85.333-64V330.667
			C277.333,313.024,262.976,298.667,245.333,298.667z M256,448c0,23.125-29.312,42.667-64,42.667S128,471.125,128,448
			c0-23.125,29.312-42.667,64-42.667c6.699,0,26.88,0.427,29.888,0.875c3.072,0.597,6.4-0.171,8.853-2.219
			c2.496-2.027,3.925-5.056,3.925-8.256v-65.067c0-5.888,4.8-10.667,10.667-10.667C251.2,320,256,324.779,256,330.667V448z"/>
	</g>
</g>
<g>
</g>
<g>
</g>
<g>
</g>
<g>
</g>
<g>
</g>
<g>
</g>
<g>
</g>
<g>
</g>
<g>
</g>
<g>
</g>
<g>
</g>
<g>
</g>
<g>
</g>
<g>
</g>
<g>
</g>
</svg>
