<?xml version="1.0" encoding="utf-8"?>
<!-- Generator: Adobe Illustrator 21.1.0, SVG Export Plug-In . SVG Version: 6.00 Build 0)  -->
<svg version="1.2" baseProfile="tiny" id="Слой_1"
	 xmlns="http://www.w3.org/2000/svg" xmlns:xlink="http://www.w3.org/1999/xlink" x="0px" y="0px" width="215px" height="54px"
	 viewBox="0 0 215 54" overflow="scroll" xml:space="preserve">
<g>
	<path fill="#FFFFFF" d="M159.7,34.5c-3.3,0-6-0.5-8.7-1.7c-1.8-0.8-3.4-1.9-4.8-3.3c-1.6-1.6-2.8-3.5-3.6-5.7
		c-0.6-1.8-0.9-3.6-0.9-5.4c0-1.9,0.2-3.7,0.8-5.5c1.2-3.7,3.5-6.6,6.8-8.6c2-1.2,4.2-2,6.5-2.4c1.4-0.2,2.8-0.3,4.2-0.3
		c3.7,0.1,7.1,1.1,10.1,3.2c3.5,2.4,5.7,5.7,6.5,9.9c0.6,3.2,0.5,6.3-0.7,9.4c-1.4,3.7-3.9,6.5-7.4,8.3c-2.1,1.1-4.4,1.8-6.8,2
		C161,34.4,160.1,34.5,159.7,34.5 M165.3,18.3c0-0.9-0.1-1.7-0.5-2.5c-0.7-1.6-1.8-2.8-3.4-3.4c-0.9-0.3-1.9-0.4-2.9-0.3
		c-1.9,0.3-3.4,1.2-4.3,3c-1,1.9-1.1,4-0.2,6c0.7,1.6,1.9,2.7,3.7,3.2c1.2,0.3,2.4,0.3,3.6,0c1.7-0.5,2.9-1.5,3.6-3.1
		C165.2,20.2,165.3,19.2,165.3,18.3"/>
	<path fill="#FFFFFF" d="M64.5,34H51.2c-0.1-0.1-0.1-0.2-0.2-0.3c-1.2-2.5-2.4-4.9-3.7-7.4c-0.4-0.7-0.7-1.5-1.1-2.2
		c0-0.1-0.1-0.2-0.2-0.3c0,0-0.1,0-0.2-0.1c-0.1,0.5,0,1,0,1.4c0,0.5,0,1,0,1.5V28v1.5V31c0,0.5,0,1,0,1.5c0,0.5,0,0.9,0,1.4
		c-0.1,0-0.2,0.1-0.2,0.1c-3.7,0-7.3,0-11,0c0-0.1-0.1-0.2-0.1-0.3s0-0.3,0-0.4c0-10.2,0-20.3,0-30.5c0-0.2,0-0.4,0-0.7
		c0.1,0,0.3,0,0.4,0c4.6,0,9.1,0,13.7,0c1.8,0,3.6,0.2,5.4,0.7c1.3,0.4,2.6,0.9,3.7,1.7c1.9,1.3,3.1,3.1,3.6,5.3
		c0.4,1.5,0.5,3.1,0.4,4.6c-0.1,0.7-0.2,1.4-0.4,2C61,18,60.1,19.2,58.7,20c-0.8,0.5-1.6,0.9-2.5,1.2c-0.2,0.1-0.3,0.1-0.5,0.2
		c-0.1,0-0.1,0.2-0.1,0.3l0.1,0.1c0.1,0.1,0.2,0.1,0.2,0.2c0.7,0.5,1.3,1.2,1.8,2c1.2,1.8,2.4,3.7,3.7,5.5c0.9,1.3,1.8,2.7,2.7,4
		C64.3,33.6,64.3,33.8,64.5,34 M45.9,16.2c0.7,0,1.3,0,2,0c0.5-0.1,0.9-0.1,1.4-0.4c0.6-0.3,1-0.7,1.1-1.4c0.2-0.6,0.2-1.2,0-1.9
		s-0.6-1.2-1.3-1.5c-0.2-0.1-0.5-0.1-0.7-0.2c-0.7-0.1-1.4-0.1-2.1-0.1c-0.1,0-0.2,0-0.3,0C45.8,11.3,45.8,15.7,45.9,16.2"/>
	<path fill="#FFFFFF" d="M70.2,2.1c0.2,0,0.3,0,0.5,0C75.1,2,81.3,2,81.8,2.1c0,0.1,0,0.2,0,0.3c0,0.2,0,0.3,0,0.5
		c0,5.7,0,11.4,0,17c0,0.6,0,1.2,0.1,1.8c0,0.4,0.1,0.7,0.2,1c0.3,0.8,0.8,1.4,1.7,1.6c0.8,0.2,1.6,0.2,2.4,0s1.3-0.7,1.6-1.5
		c0.2-0.5,0.3-0.9,0.3-1.4c0-0.6,0.1-1.2,0.1-1.8c0-5.6,0-11.3,0-16.9c0-0.2,0-0.4,0-0.7c0.2-0.1,0.4-0.1,0.6-0.1c3.3,0,6.7,0,10,0
		c0.2,0,0.4,0,0.6,0c0.1,0,0.2,0,0.3,0c0,0.1,0.1,0.2,0.1,0.3c0,0.1,0,0.2,0,0.3c0,6.1,0,12.1,0,18.2c0,1.7-0.2,3.3-0.7,5
		c-0.7,2.4-2,4.4-4,5.8c-1.3,1-2.9,1.7-4.5,2.1c-1.5,0.4-3,0.6-4.6,0.7c-1.3,0.1-2.7,0-4-0.2c-2-0.2-3.9-0.7-5.6-1.6
		c-2.9-1.5-4.7-3.9-5.6-7c-0.4-1.4-0.6-2.9-0.6-4.4c0-6.2,0-12.5,0-18.7C70.2,2.4,70.2,2.1,70.2,2.1z"/>
	<path fill="#FFFFFF" d="M190.8,2.1c0.1,0.1,0.1,0.2,0.2,0.3c0.8,1.4,1.5,2.9,2.3,4.3c0.3,0.6,0.6,1.3,0.8,2c0,0.1,0.1,0.3,0.1,0.4
		c0,0,0.1,0.1,0.2,0.1c0,0,0.1,0,0.1-0.1s0.1-0.1,0.1-0.2c0.2-0.7,0.5-1.4,0.8-2.1c0.7-1.5,1.5-3,2.2-4.6c0-0.1,0.1-0.1,0.1-0.2
		c0.2-0.1,0.4-0.1,0.6-0.1c2.2,0,4.3,0,6.5,0h5.4h0.5c0.1,0.2-0.1,0.3-0.1,0.4c-0.7,1-1.3,2-2,3c-2.5,3.7-4.9,7.3-7.4,11
		c-0.1,0.2-0.2,0.3-0.3,0.5c0.6,1,1.2,1.9,1.9,2.8c0.6,0.9,1.3,1.9,1.9,2.8c0.6,0.9,1.3,1.9,1.9,2.8c0.6,0.9,1.3,1.9,1.9,2.8
		c0.6,0.9,1.3,1.9,1.9,2.8c0.6,0.9,1.2,1.9,1.9,2.8c-0.1,0-0.2,0.1-0.3,0.1s-0.2,0-0.4,0h-11.9H199c-0.1-0.1-0.2-0.2-0.2-0.3
		c-1.2-2.1-2.3-4.3-3.5-6.4c-0.3-0.5-0.5-1-0.6-1.5c0-0.1-0.1-0.3-0.1-0.4h-0.3c-0.1,0.1-0.1,0.3-0.1,0.4c-0.2,0.7-0.5,1.3-0.8,1.9
		c-1.1,2-2.2,4.1-3.3,6.1c-0.1,0.1-0.1,0.2-0.2,0.3h-0.1l0,0c-4.2,0-8.4,0-12.6,0c-0.1,0-0.1,0-0.2,0l0,0l0,0l0,0c0,0,0,0,0-0.1l0,0
		c0,0,0-0.1,0.1-0.1c0,0,0-0.1,0.1-0.1c0-0.1,0.1-0.1,0.1-0.2c3.6-5.4,7.1-10.8,10.7-16.2l0,0l0,0l0,0c0,0,0,0,0-0.1
		c-0.6-1-1.3-1.9-2-2.9s-1.3-2-2-3s-1.3-2-2-2.9c-0.7-1-1.3-2-2-3s-1.3-2-2-2.9c0.1-0.2,0.1-0.1,0.2-0.1c0.1,0,0.3,0,0.4,0h11.7
		L190.8,2.1L190.8,2.1z"/>
	<path fill="#FFFFFF" d="M118.1,2.1c0.1,0.2,0.1,0.4,0.2,0.6c1.4,4.7,2.8,9.5,4.1,14.2c0.3,1,0.5,2,0.6,3c0,0.4,0.1,0.8,0.1,1.2
		c0,0.1,0.1,0.2,0.2,0.1c0-0.1,0-0.1,0.1-0.2c0.1-1.6,0.4-3.1,0.9-4.6c1.4-4.6,2.7-9.2,4-13.8c0-0.2,0.1-0.3,0.1-0.5
		C128.6,2,128.8,2,129,2c3.4,0,6.8,0,10.1,0c0.3,0,0.6,0,0.9,0c0.1,0,0.2,0,0.3,0c0.1,0.2,0,0.3-0.1,0.5c-0.7,1.8-1.4,3.7-2.1,5.5
		c-3.3,8.4-6.5,16.9-9.8,25.3c-0.1,0.2-0.2,0.4-0.2,0.6c-0.4,0.1-9.1,0.1-9.8,0c0,0-0.1-0.1-0.1-0.2c-4.1-10.5-8.1-21.1-12.2-31.6V2
		h0.1C110.2,2.1,114.2,2.1,118.1,2.1"/>
	<path fill="#FFFFFF" d="M3.3,12.4V2.1c0.1,0,0.2,0,0.3-0.1C3.7,2,3.8,2,4,2c7.7,0,15.4,0,23,0c0.2,0,0.4,0,0.6,0c0,0.1,0,0.3,0,0.4
		c0,4.2,0,9.4,0,9.8c-0.2,0.1-0.3,0-0.5,0c-1.3-0.1-2.6-0.1-3.8-0.2c-0.5,0-1.1-0.1-1.6-0.1c-0.1,0-0.2,0-0.3,0
		c0,0.1-0.1,0.2-0.1,0.3c0,0.2,0,0.3,0,0.5c0,6.8,0,13.5,0,20.3c0,0.2,0,0.4-0.1,0.7c-0.1,0-0.2,0-0.3,0c-0.2,0-0.4,0-0.6,0
		c-3.3,0-6.6,0-9.9,0c-0.2,0-0.4,0-0.6,0c0-0.1-0.1-0.2-0.1-0.3c0-0.2,0-0.3,0-0.5c0-6.8,0-13.5,0-20.3c0-0.2,0-0.4,0-0.6
		c-0.4-0.1-1.2-0.1-3.2,0.1C5,12.4,3.7,12.4,3.3,12.4"/>
	<path fill="#FFFFFF" d="M169.1,38.4v7.8c-0.4,0.1-0.7,0.1-1,0c0-0.1,0-0.2-0.1-0.3c0-0.1,0-0.2,0-0.3c0-3.1,0-6.2,0-9.3
		c0-0.2,0-0.4,0.1-0.6c0.5,0.4,0.9,0.9,1.3,1.4c0.4,0.4,0.9,0.9,1.3,1.3c0.4,0.5,0.9,0.9,1.3,1.4c0.4,0.4,0.9,0.9,1.3,1.3
		c0.4,0.5,0.9,0.9,1.3,1.4c0.4,0.4,0.8,0.9,1.3,1.3c0.2-0.1,0.1-0.2,0.1-0.3c0-1,0-1.9,0-2.9c0-1.3,0-2.7,0-4c0-0.2,0-0.4,0-0.5
		c0.4-0.1,0.6-0.1,1,0c0.1,0.2,0,0.4,0,0.5c0,1.9,0,3.8,0,5.7c0,1.2,0,2.4,0,3.6c0,0.2,0,0.3,0,0.5c-0.4-0.2-0.6-0.6-0.9-0.9
		c-0.3-0.3-0.6-0.6-0.9-0.9c-0.3-0.3-0.6-0.6-0.9-0.9c-0.3-0.3-0.6-0.6-0.9-0.9c-0.3-0.3-0.6-0.6-0.9-0.9c-0.3-0.3-0.6-0.6-0.9-0.9
		c-0.3-0.3-0.6-0.6-0.9-0.9c-0.3-0.3-0.6-0.6-0.9-0.9C169.7,39.1,169.5,38.7,169.1,38.4"/>
	<path fill="#FFFFFF" d="M25.3,44c0.1-0.6,0-1.1,0-1.6s0-1,0-1.5v-1.6c0-0.5,0-1,0-1.5s0-1,0-1.5c0.4-0.1,0.5-0.1,1.1,0
		c0,0.1,0,0.3,0,0.4c0,0.8,0,1.5,0,2.3c0,2.4,0,4.8,0,7.2c0,0.2,0,0.4,0,0.6c-0.2,0-0.3-0.2-0.4-0.3c-0.6-0.6-1.2-1.3-1.8-1.9
		c-1-1.1-2.1-2.1-3.1-3.2c-0.7-0.7-1.4-1.4-2-2.1c-0.2-0.2-0.3-0.4-0.5-0.5c-0.1,0.2-0.1,0.3-0.1,0.5c0,2.2,0,4.5,0,6.7
		c0,0.2,0,0.4,0,0.6c-0.4,0.1-0.7,0.1-1,0c-0.1-0.5-0.1-7.1-0.1-10.1c0-0.1,0-0.2,0-0.3c0.4,0.2,0.6,0.5,0.8,0.8
		c0.3,0.3,0.5,0.5,0.8,0.8s0.5,0.5,0.8,0.8s0.5,0.5,0.8,0.8s0.5,0.5,0.8,0.8c0.2,0.3,0.5,0.5,0.7,0.8c0.3,0.3,0.5,0.5,0.8,0.8
		s0.5,0.5,0.8,0.8s0.5,0.5,0.8,0.8C24.7,43.3,24.9,43.6,25.3,44"/>
	<path fill="#FFFFFF" d="M84.7,38.4c-0.1,0.6,0,1.1,0,1.6s0,1,0,1.5V43c0,0.5,0,1,0,1.5s0,1,0,1.5c-0.4,0.1-0.7,0.1-1.1,0
		c0-0.1,0-0.2-0.1-0.3v-0.1c0-3.2,0-6.5,0-9.7c0-0.1,0-0.2,0-0.3c0.2,0,0.3,0.1,0.3,0.2c0.6,0.6,1.2,1.3,1.8,1.9
		c1.2,1.2,2.3,2.4,3.5,3.6c0.6,0.7,1.3,1.3,1.9,2c0.1,0.1,0.2,0.2,0.4,0.4c0-0.1,0.1-0.2,0.1-0.3c0-0.4,0-0.9,0-1.3
		c0-1.9,0-3.8,0-5.6c0-0.2,0-0.4,0-0.5c0.4-0.1,0.6-0.1,1,0v0.1c0,3.4,0,6.8,0,10.1c0,0,0,0.1-0.1,0.2c-0.4-0.3-0.8-0.8-1.1-1.1
		c-0.4-0.4-0.8-0.8-1.1-1.2c-0.4-0.4-0.7-0.8-1.1-1.1c-0.4-0.4-0.7-0.8-1.1-1.1c-0.4-0.4-0.7-0.8-1.1-1.1c-0.4-0.4-0.8-0.8-1.1-1.2
		C85.5,39.3,85.1,38.9,84.7,38.4"/>
	<path fill="#FFFFFF" d="M152.5,46.4c-2.9,0-5.3-2.4-5.3-5.3c0-2.8,2.2-5.3,5.3-5.3s5.3,2.5,5.3,5.3
		C157.8,44.2,155.4,46.4,152.5,46.4 M152.5,45.4c2.2,0,4.2-1.8,4.2-4.2c0-2.2-1.7-4.3-4.2-4.2c-2.7,0-4.2,2.3-4.2,4.1
		C148.3,43.3,150.1,45.4,152.5,45.4"/>
	<path fill="#FFFFFF" d="M211.9,51.4v0.4l-0.1,0.1c-0.2,0-0.4,0-0.6,0c-20.1,0-40.3,0-60.4,0h-0.6c-0.2-0.2-0.1-0.3-0.1-0.5
		c0.1,0,0.2,0,0.3,0c0.2,0,0.3,0,0.5,0h60.2C211.4,51.4,211.6,51.4,211.9,51.4"/>
	<path fill="#FFFFFF" d="M65,51.4v0.4l-0.1,0.1c-0.2,0-0.4,0-0.6,0c-20.1,0-40.3,0-60.4,0H3.4c-0.1-0.2-0.1-0.3-0.1-0.5
		c0.1,0,0.2,0,0.3,0c0.2,0,0.3,0,0.5,0h60.2C64.5,51.4,64.7,51.4,65,51.4"/>
	<path fill="#FFFFFF" d="M70.3,41.8c0.2,0.3,0.4,0.6,0.6,0.9c0.2,0.3,0.4,0.6,0.6,0.9c0.2,0.3,0.4,0.6,0.7,0.9
		c0.2,0.3,0.4,0.6,0.6,0.9c0.2,0.3,0.4,0.6,0.6,0.9c-0.2,0.1-0.4,0.1-0.6,0.1s-0.4,0-0.6,0c-0.1,0-0.1,0-0.2-0.1s-0.1-0.2-0.2-0.3
		c-0.8-1.2-1.7-2.4-2.5-3.6c-0.1-0.1-0.2-0.2-0.2-0.3C69,42,68.9,41.9,68.7,42c0,0.1,0,0.3,0,0.4c0,1.1,0,2.3,0,3.4
		c0,0.2,0,0.3-0.1,0.5c-0.3,0.1-0.6,0-1,0c0-0.1,0-0.2-0.1-0.3c0-0.1,0-0.2,0-0.4c0-3,0-5.9,0-8.9c0-0.2,0-0.4,0-0.6l0.1-0.1
		c0.9,0,1.7-0.1,2.6,0.1c0.4,0.1,0.7,0.2,1,0.3c0.8,0.3,1.2,0.9,1.4,1.8c0.1,0.5,0.1,1.1-0.1,1.6c-0.3,0.9-0.9,1.5-1.9,1.8
		C70.7,41.6,70.5,41.7,70.3,41.8C70.4,41.7,70.3,41.7,70.3,41.8 M68.8,37.1c0,0.1,0,0.2,0,0.4c0,1.7,0,2.9,0.1,3.3
		c0.4,0.1,0.9,0,1.3,0c0.2,0,0.5-0.1,0.7-0.2c0.5-0.2,0.8-0.6,0.9-1.2c0-0.2,0-0.4,0-0.7c-0.1-0.7-0.4-1.2-1.2-1.4
		C70,37.1,69.4,37.1,68.8,37.1"/>
	<path fill="#FFFFFF" d="M194.8,46.2c-0.4-0.9-0.8-1.9-1.2-2.8c-0.4-0.1-3.8-0.1-4.4,0c-0.3,0.4-0.4,0.9-0.6,1.4
		c-0.2,0.5-0.4,0.9-0.6,1.4c-0.4,0.1-0.7,0.1-1.1,0v-0.1l0,0c1.5-3.4,3-6.8,4.5-10.2c0-0.1,0.1-0.1,0.1-0.2c0,0.1,0.1,0.1,0.1,0.2
		c0.2,0.5,4.3,10,4.4,10.3C195.6,46.3,195.5,46.3,194.8,46.2 M193.1,42.3c-0.1-0.5-1.4-3.6-1.7-4l-0.1,0.1c-0.5,1.2-1.1,2.5-1.6,3.7
		v0.1C190.1,42.4,192.5,42.4,193.1,42.3"/>
	<path fill="#FFFFFF" d="M107,35.7c1.5,3.6,3,7,4.5,10.4c0,0,0,0.1,0,0.2c-0.2,0.1-0.4,0-0.6,0s-0.3,0-0.5,0
		c-0.1-0.1-0.1-0.2-0.2-0.3c-0.3-0.7-0.6-1.4-0.9-2.1c-0.1-0.2-0.1-0.3-0.2-0.5h-4.3c-0.2,0.1-0.2,0.2-0.2,0.4
		c-0.3,0.7-0.6,1.3-0.9,2c-0.1,0.2-0.1,0.3-0.2,0.5c-0.4,0-0.7,0.1-1.1,0c-0.1-0.2,0.1-0.3,0.1-0.5c0.5-1.2,1.1-2.5,1.6-3.7
		c0.9-1.9,1.7-3.9,2.6-5.8C106.8,36.1,106.9,35.9,107,35.7 M105.3,42.3c0.1,0,0.2,0,0.3,0c1,0,2,0,3,0l0,0l0,0
		c-0.1-0.4-1.2-3-1.5-3.8c0-0.1-0.1-0.1-0.1-0.2c-0.2,0.3-1.4,3-1.7,3.8C105.3,42.2,105.3,42.2,105.3,42.3"/>
	<path fill="#FFFFFF" d="M52,36.1c1.6,0,3.2,0,4.8,0c0.1,0,0.2,0,0.4,0c0.1,0.3,0,0.6,0,1c-0.1,0-0.3,0-0.4,0c-1.1,0-2.1,0-3.2,0
		c-0.2,0-0.3,0-0.5,0c0,0-0.1,0-0.1,0.1l0,0c0,0.9,0,1.7,0,2.6c0,0.1,0,0.2,0,0.3c0.1,0,0.3,0,0.4,0c1,0,2,0,3,0c0.2,0,0.3,0,0.5,0
		c0.1,0.4,0.1,0.5,0,1c-0.3,0.1-0.6,0-1,0c-0.3,0-0.7,0-1,0s-0.6,0-1,0c-0.3,0-0.6,0-1,0c0,0.1,0,0.2,0,0.2c0,1.2,0,2.5,0,3.7
		c0.2,0.1,0.3,0.1,0.5,0.1c1,0,2.1,0,3.1,0c0.2,0,0.3,0,0.5,0.1c0.1,0.3,0.1,0.6,0,0.9c-0.1,0-0.2,0.1-0.3,0.1c-1.6,0-3.1,0-4.7,0
		c-0.1,0-0.2,0-0.3,0c0-0.1,0-0.2,0-0.3C51.9,44.7,51.9,36.6,52,36.1"/>
	<path fill="#FFFFFF" d="M36.2,37.1c0-0.4-0.1-0.7,0-1c0.1,0,0.3,0,0.4,0c2.7,0,5.2,0,5.6,0.1c0,0.1,0,0.3,0,0.4c0,0.2,0,0.3,0,0.5
		c-0.1,0-0.2,0-0.3,0c-0.5,0-1.1,0-1.6,0c-0.2,0-0.3,0-0.5,0c-0.2,0.2-0.1,0.4-0.1,0.6c0,1.6,0,3.1,0,4.7c0,1.1,0,2.2,0,3.3
		c0,0.2,0,0.3,0,0.5c-0.4,0.1-0.7,0.1-1.1,0c0-0.1-0.1-0.2-0.1-0.3c0-0.3,0-0.5,0-0.8c0-2.5,0-4.9,0-7.4c0-0.2,0-0.4,0-0.6
		c-0.4-0.1-0.8,0-1.2-0.1C37,37.1,36.6,37.1,36.2,37.1"/>
	<path fill="#FFFFFF" d="M122.7,37.1c-0.8,0-1.6,0-2.4,0c0-0.2,0-0.3,0-0.4c0-0.2,0-0.4,0-0.6c0.1,0,0.2,0,0.3,0c1.8,0,3.6,0,5.4,0
		c0.1,0,0.2,0,0.3,0c0.1,0.3,0,0.6,0,1c-0.1,0-0.2,0-0.3,0c-0.5,0-1.1,0-1.6,0c-0.2,0-0.3,0-0.5,0c-0.1,0.2-0.1,0.4-0.1,0.6
		c0,2.5,0,5,0,7.6v0.9c-0.4,0.1-0.7,0.1-1.1,0c-0.1-0.5,0-1,0-1.5s0-1,0-1.5v-1.5v-1.5v-1.5C122.7,38.2,122.7,37.7,122.7,37.1"/>
	<path fill="#FFFFFF" d="M205.7,36.1c0.3-0.1,0.6,0,1,0c0,0.1,0.1,0.2,0.1,0.3s0,0.3,0,0.4v7.8c0,0.2,0,0.4,0,0.6c0.2,0,0.3,0,0.4,0
		c0.6,0,1.2,0,1.8,0c0.2,0,0.3,0,0.5,0c0.1,0.3,0.1,0.6,0,1c-0.1,0-0.2,0-0.2,0c-1.1,0-2.3,0-3.4,0c-0.1,0-0.1,0-0.2,0
		c0-0.1,0-0.2-0.1-0.3c0-0.1,0-0.2,0-0.4c0-3,0-5.9,0-8.9C205.6,36.5,205.6,36.3,205.7,36.1"/>
	<path fill="#FFFFFF" d="M136.1,36.1c0.4,0,0.7,0,1.1,0c0,0.1,0,0.2,0,0.3c0.1,1.4,0,9.4,0,9.8c-0.3,0.1-0.5,0.1-1,0
		c-0.1-0.1-0.1-0.3-0.1-0.4c0-1.2,0-2.4,0-3.5c0-1.9,0-3.7,0-5.6C136.1,36.5,136.1,36.3,136.1,36.1"/>
	<path fill="#FFFFFF" d="M6.7,46.2c-0.3,0.1-0.7,0-1,0c-0.1-0.2-0.1-0.3-0.1-0.5c0-1.1,0-2.3,0-3.4c0-1.9,0-3.8,0-5.7
		c0-0.2,0-0.4,0.1-0.6c0.3,0,0.7,0,1,0c0,0.1,0,0.2,0,0.3C6.8,38.7,6.7,45.7,6.7,46.2"/>
	<path fill="#FFFFFF" d="M123.9,52.5c0.5-0.9,0.9-1.8,1.3-2.7c0.1,0.1,0.1,0.1,0.1,0.1c0.1,1,0.3,2,0.4,2.9c0,0.1,0,0.1,0,0.2
		l-0.1,0.1h-0.1c0-0.1-0.1-0.2-0.1-0.2c-0.1-0.4-0.1-0.8-0.2-1.2c0-0.3-0.1-0.5-0.1-0.8c-0.2,0.2-0.3,0.4-0.4,0.6
		c-0.1,0.2-0.2,0.4-0.3,0.6c-0.1,0.2-0.2,0.4-0.3,0.6c-0.1,0.2-0.2,0.4-0.3,0.6c-0.3-0.4-0.4-0.8-0.7-1.2c-0.2-0.4-0.3-0.8-0.6-1.2
		c0,0.1-0.1,0.2-0.1,0.3c-0.1,0.6-0.2,1.1-0.2,1.7c0,0.1-0.1,0.2-0.1,0.3H122l-0.1-0.1V53c0.1-1,0.3-1.9,0.4-2.9
		c0-0.1,0-0.1,0.1-0.3c0.2,0.2,0.3,0.5,0.4,0.7s0.2,0.4,0.3,0.6c0.1,0.2,0.2,0.5,0.3,0.7C123.7,52,123.7,52.2,123.9,52.5"/>
	<path fill="#FFFFFF" d="M98.6,49.7c0.3,0.2,0.4,0.4,0.6,0.6c0.2,0.2,0.4,0.4,0.5,0.6c0.2,0.2,0.4,0.4,0.5,0.6
		c0.2,0.2,0.3,0.4,0.5,0.6c0.2-0.1,0.1-0.2,0.1-0.3c0-0.6,0-1.2,0-1.7c0-0.1,0-0.2,0-0.4c0,0,0.1-0.1,0.2-0.1s0.1,0.1,0.1,0.1
		c0,0.1,0,0.1,0,0.2c0,1,0,1.9,0,2.9v0.1c-0.1,0.1-0.2,0-0.2-0.1c-0.6-0.7-1.2-1.3-1.8-2c-0.1-0.1-0.2-0.2-0.3-0.3
		c-0.1,0.2,0,0.4-0.1,0.6c0,0.2,0,0.4,0,0.6v0.6v0.6c-0.1,0-0.1,0.1-0.2,0.1h-0.1C98.5,52.7,98.5,50.4,98.6,49.7"/>
	<path fill="#FFFFFF" d="M118,53.2c-1.1,0-1.8-0.9-1.8-1.8c0-0.9,0.7-1.8,1.8-1.8c1.2,0,1.8,0.9,1.8,1.8
		C119.9,52.4,119.2,53.2,118,53.2 M119.5,51.5c0-0.8-0.6-1.5-1.4-1.5s-1.5,0.6-1.5,1.5c0,0.8,0.6,1.4,1.4,1.5
		C118.9,52.9,119.5,52.3,119.5,51.5"/>
	<path fill="#FFFFFF" d="M96.3,51.4c0,0.8-0.6,1.8-1.8,1.8c-1,0-1.8-0.8-1.8-1.8s0.8-1.8,1.8-1.8C95.7,49.6,96.3,50.6,96.3,51.4
		 M94.5,50c-0.8,0-1.5,0.6-1.5,1.4c0,0.9,0.7,1.5,1.4,1.5c0.8,0,1.5-0.6,1.5-1.5C95.9,50.6,95.3,50,94.5,50"/>
	<path fill="#FFFFFF" d="M138,50.6c0,0.2,0,0.3,0,0.4c0,0.6,0,1.1,0,1.7c0,0.1,0,0.2,0,0.4l-0.1,0.1c-0.1,0-0.1,0-0.2-0.1
		c0-0.1,0-0.1,0-0.2c0-1,0-1.9,0-2.9v-0.1c0.1,0,0.2,0.1,0.2,0.1c0.6,0.6,1.1,1.3,1.7,1.9c0.1,0.1,0.2,0.2,0.3,0.3
		c0.1-0.1,0.1-0.2,0.1-0.3c0-0.6,0-1.3,0-1.9c0-0.2,0.1-0.3,0.2-0.3c0.1,0,0.2,0.1,0.2,0.3c0,1,0,1.9,0,2.9c0,0.1,0,0.1,0,0.2
		c-0.2,0-0.2-0.1-0.3-0.2c-0.6-0.6-1.1-1.3-1.6-1.9C138.2,50.9,138.1,50.8,138,50.6"/>
	<path fill="#FFFFFF" d="M113.9,50.5c-0.4-0.4-0.9-0.6-1.4-0.5c-0.4,0-0.7,0.2-0.9,0.5c-0.5,0.5-0.5,1.4-0.1,2
		c0.3,0.4,0.7,0.5,1.2,0.5s0.8-0.2,1.2-0.6c0.1,0.1,0.1,0.1,0.2,0.2c-0.1,0.2-0.3,0.4-0.5,0.5c-0.6,0.3-1.3,0.3-1.9,0
		c-0.7-0.3-1-1.1-0.9-1.8s0.6-1.3,1.3-1.5c0.6-0.2,1.2-0.1,1.8,0.3c0.1,0,0.1,0.1,0.2,0.2C114.1,50.3,114.1,50.3,113.9,50.5"/>
	<path fill="#FFFFFF" d="M90.3,52.3c0.1,0.1,0.2,0.1,0.2,0.2c-0.4,0.6-1.2,0.9-2,0.7c-0.7-0.2-1.3-0.9-1.3-1.7s0.5-1.5,1.2-1.7
		c0.8-0.3,1.7,0,2.1,0.6c-0.1,0-0.1,0.1-0.2,0.2c-0.4-0.4-0.9-0.6-1.4-0.5c-0.4,0-0.7,0.2-0.9,0.5c-0.5,0.5-0.5,1.4,0,2
		c0.3,0.4,0.7,0.5,1.2,0.5C89.6,52.9,89.9,52.7,90.3,52.3"/>
	<path fill="#FFFFFF" d="M71.2,52.1c-0.2,0.3-0.3,0.6-0.5,1c-0.1,0.1-0.1,0.1-0.3,0.1v-0.1c0.5-1.1,1-2.2,1.5-3.3
		c0.1,0,0.1,0.1,0.1,0.1c0.5,1.1,1,2.1,1.5,3.2c-0.2,0.1-0.3,0.1-0.4,0s-0.1-0.3-0.2-0.4c-0.1-0.2-0.2-0.4-0.3-0.6
		C72.2,52,71.7,52,71.2,52.1 M72,50.5c-0.2,0.4-0.4,0.7-0.5,1.1c0.5,0.1,0.6,0.1,1,0C72.4,51.3,72.3,51,72,50.5"/>
	<path fill="#FFFFFF" d="M135.4,53.1c-0.1,0.1-0.3,0.1-0.3-0.1c-0.1-0.1-0.2-0.3-0.2-0.5c-0.1-0.2-0.2-0.3-0.3-0.5c-0.5,0-1,0-1.5,0
		c-0.1,0.2-0.2,0.5-0.4,0.7c0,0.1-0.1,0.2-0.1,0.3c-0.1,0.1-0.2,0.1-0.3,0.1V53c0.3-0.8,1.4-3,1.6-3.2
		C134.1,50.1,135.3,52.7,135.4,53.1 M133.3,51.7c0.2,0,0.4,0,0.6,0c0.2,0,0.3,0,0.5-0.1c-0.1-0.2-0.1-0.3-0.2-0.5
		c-0.1-0.2-0.2-0.4-0.3-0.7c-0.1,0.2-0.2,0.3-0.2,0.4C133.5,51.1,133.4,51.4,133.3,51.7"/>
	<path fill="#FFFFFF" d="M82,53.1c0-0.1,0-0.2,0-0.2c0.5-1.1,1-2.1,1.5-3.2c0.2,0,0.2,0.1,0.2,0.2c0.5,1,0.9,2,1.4,3.1v0.1
		c-0.2,0.1-0.3,0.1-0.3,0c-0.1-0.1-0.1-0.3-0.2-0.4c-0.1-0.2-0.2-0.4-0.3-0.6h-1.5c-0.3,0.3-0.3,0.8-0.6,1.1L82,53.1L82,53.1z
		 M84.1,51.7c-0.2-0.4-0.3-0.8-0.6-1.1c-0.3,0.5-0.5,0.9-0.5,1.2C83.4,51.7,83.8,51.7,84.1,51.7"/>
	<path fill="#FFFFFF" d="M128.2,49.7c0.3,0,0.7,0,1.1,0c0.1,0,0.2,0,0.4,0.1c0.4,0.1,0.6,0.4,0.6,0.8c0,0.4-0.2,0.7-0.6,0.8
		c-0.2,0.1-0.4,0.1-0.6,0.1c-0.2,0-0.4,0-0.6,0.1c-0.1,0.2,0,0.4,0,0.6c0,0.3,0,0.6,0,0.9l-0.1,0.1c-0.1,0-0.2,0-0.2-0.1
		s0-0.2,0-0.3c0-0.9,0-1.8,0-2.7C128.1,50,128,49.8,128.2,49.7 M128.5,50.1c-0.1,0.5-0.1,0.8,0,1.2c0.2,0,0.5,0,0.8,0
		c0.2,0,0.4-0.1,0.5-0.2c0.3-0.3,0.1-0.8-0.3-0.9C129.1,50,128.8,50,128.5,50.1"/>
	<path fill="#FFFFFF" d="M103.4,49.8c0.2-0.1,0.3,0,0.4,0.1c0.2,0.2,0.3,0.5,0.5,0.7c0.1,0.1,0.2,0.3,0.3,0.4c0.1,0,0.2-0.1,0.2-0.1
		c0.2-0.3,0.4-0.7,0.6-1c0.1-0.2,0.2-0.2,0.4-0.1c-0.1,0.2-0.2,0.4-0.3,0.6c-0.2,0.3-0.3,0.6-0.5,0.9c-0.1,0.2-0.2,0.4-0.2,0.6
		c0,0.3,0,0.6,0,1c0,0.1,0,0.2,0,0.2s-0.1,0.1-0.2,0.1c0,0-0.1,0-0.1-0.1s0-0.2,0-0.3c0-0.3,0-0.6,0-1c0-0.2-0.1-0.4-0.2-0.6
		c-0.3-0.4-0.5-0.8-0.8-1.3C103.5,49.9,103.5,49.8,103.4,49.8"/>
	<path fill="#FFFFFF" d="M143.8,53.1c-0.1,0-0.2,0-0.3-0.1c0-0.2,0-0.3,0-0.5c0-0.4,0.1-0.7,0-1.1c-0.1-0.3-0.3-0.6-0.5-0.9
		c-0.2-0.3-0.3-0.5-0.5-0.8c0.2-0.1,0.3-0.1,0.4,0c0.2,0.3,0.4,0.6,0.5,0.9c0.1,0.1,0.2,0.2,0.3,0.4c0.2-0.3,0.4-0.6,0.5-0.9
		c0.1-0.1,0.2-0.3,0.3-0.4c0.1-0.1,0.2-0.1,0.4,0c-0.1,0.1-0.1,0.2-0.2,0.3c-0.2,0.4-0.5,0.8-0.7,1.2c-0.1,0.2-0.2,0.4-0.2,0.6
		c0,0.3,0,0.6,0,1C143.9,52.9,143.8,53,143.8,53.1"/>
	<path fill="#FFFFFF" d="M79,50.1c-0.3,0-0.5,0-0.7-0.1l-0.1-0.1c0-0.1,0-0.1,0.1-0.2h0.1c0.5,0,1.1,0,1.6,0h0.1
		c0,0.2,0,0.3-0.1,0.3c-0.2,0-0.4,0-0.6,0c0,0.1,0,0.3,0,0.4c0,0.7,0,1.5,0,2.2c0,0.1,0,0.3,0,0.4l-0.1,0.1c-0.1,0-0.1,0-0.2-0.1
		c0-0.1,0-0.2,0-0.4c0-0.7,0-1.4,0-2.1v-0.4H79z"/>
</g>
</svg>